<?xml version="1.0" encoding="utf-8"?>
<!-- Generator: Adobe Illustrator 15.0.0, SVG Export Plug-In . SVG Version: 6.00 Build 0)  -->
<!DOCTYPE svg PUBLIC "-//W3C//DTD SVG 1.1//EN" "http://www.w3.org/Graphics/SVG/1.1/DTD/svg11.dtd">
<svg version="1.1" id="Layer_1" xmlns="http://www.w3.org/2000/svg" xmlns:xlink="http://www.w3.org/1999/xlink" x="0px" y="0px"
	 width="139.729px" height="139.606px" viewBox="0 0 139.729 139.606" enable-background="new 0 0 139.729 139.606"
	 xml:space="preserve">
<path fill="#FFFFFF" d="M69.689,1.564c37.608,0,68.102,30.491,68.102,68.104c0,37.612-30.494,68.106-68.102,68.106
	c-37.613,0-68.107-30.494-68.107-68.106C1.583,32.055,32.076,1.564,69.689,1.564z"/>
<path fill="#163A64" d="M113.951,75.458l-3.391,1.046l0.768,0.306l-1.186,0.755c0.123-0.691,0.244-1.381,0.337-2.084l1.864-1.552
	l0.04,0.815l2.091-2.85l-3.222,1.473l0.795,0.207l-1.481,1.24c0.105-0.854,0.18-1.713,0.238-2.578l1.823-2.026l0.157,0.807
	l1.689-3.114l-3.002,1.895l0.831,0.094l-1.463,1.573c0.012-0.546,0.028-1.086,0.028-1.629c0-4.084-0.598-8.022-1.713-11.746
	c-1.851,0.174-3.708-0.42-4.598-0.589c2.369,1.387,3.194,2.89,3.542,4.617c-1.893,0.424-4.435-0.197-5.822-1.285
	c1.358,1.188,2.218,3.059,2.28,4.987c-1.96,0.099-3.766-0.822-5.096-2.151c0.854,0.945,1.928,3.352,1.677,5.067
	c-1.637-0.174-3.558-1.245-4.603-2.525c0.871,1.916,1.277,3.465,1.173,5.182c-1.619-0.312-2.85-0.767-4.307-2.16
	c0.702,1.752,0.963,3.509,0.802,4.951c-1.869-0.662-3.124-1.414-4.18-3.178c0.568,1.556,0.928,3.605,0.545,4.794
	c-1.591-0.475-2.642-1.43-3.466-3.052c0.818,1.717,0.714,3.726,0.441,4.759c-0.667-0.133-1.539-0.592-1.991-1.103
	c-0.024,0.313-0.048,0.615-0.064,0.911c-0.088,1.167-0.313,2.253-0.691,3.257c0.128,0.139,0.447,0.505,0.451,0.522
	c0.837,0.894,1.981,1.753,2.88,2.031c-0.39,0.059-0.923,0.396-1.462,0.453c0.597,0.673,1.811,0.825,2.565,1.596
	c-0.587,0.069-0.719,0.493-1.434,0.413c1.353,1.044,2.594,1.079,3.28,1.16c0.285,0.036,1.195,0.116,1.771,0.024
	c0.818-0.122,1.655,0.278,1.979,0.47c0.499,0.296,0.476,0.987,0.377,1.335c-0.064,0.204-0.151,0.458-0.528,0.646
	c-0.209,0.068-0.354,0.092-0.133-0.071c0.191-0.145,0.371-1.021-0.076-1.364c-0.336-0.238-0.802-0.441-1.348-0.412
	c-0.614,0.034-1.542,0.082-1.995,0.034c-0.419-0.04-0.674,0.5-0.733,0.731c-0.15,0.546-0.318,1.214-1.102,0.883
	c-0.97-0.557-2.341-0.511-3.918-1.143c0.226,0.482,0.128,0.899,0.366,1.445c-1.405-0.349-1.759-1.058-3.101-1.533
	c0.22,0.487,0.156,0.871,0.464,1.329c-1.131-0.197-2.183-1.213-3.75-1.631c-0.058,0.019-0.098,0.035-0.146,0.047
	c-0.574,0.169-1.096,0.331-1.573,0.488c1.109,1.26,2.033,2.798,2.462,4.667c0,0-0.784,0.023-1.945-0.377
	c0.331,1.017,0.54,2.113,0.551,3.28c0,0-0.877-0.152-2.084-0.906c0.11,1.115,0.076,2.265-0.156,3.448c0,0-1.022-0.417-2.22-1.637
	c-0.14,1.143-0.428,2.299-0.914,3.448c0,0-0.935-0.632-1.885-2.101c-0.391,1.149-0.946,2.275-1.701,3.344
	c0,0-1.012-1.057-1.701-3.205c-0.916,1.37-1.787,1.962-1.787,1.962c-0.49-1.149-0.781-2.305-0.92-3.46
	c-1.198,1.231-2.215,1.649-2.215,1.649c-0.235-1.184-0.275-2.333-0.166-3.448c-1.207,0.754-2.092,0.906-2.092,0.906
	c0.02-1.167,0.226-2.263,0.563-3.28c-1.165,0.4-1.948,0.377-1.948,0.377c0.441-1.904,1.691-3.866,2.534-4.743
	c-0.415-0.132-0.856-0.267-1.334-0.412c-0.047-0.012-0.087-0.028-0.146-0.047c-1.564,0.418-2.614,1.44-3.747,1.631
	c0.299-0.458,0.24-0.842,0.461-1.329c-1.338,0.475-1.698,1.184-3.099,1.533c0.235-0.546,0.142-0.963,0.371-1.445
	c-1.306,0.632-3.088,1.073-3.877,1.247c-0.876,0.187-0.926-1.114-1.213-1.405c-0.126-0.128-0.83-0.174-1.122-0.134
	c-0.434,0.076-1.28,0.042-1.906,0.024c-0.633-0.012-1.068,0.174-1.393,0.43c-0.468,0.33-0.248,1.242-0.044,1.393
	c0.214,0.156,0.081,0.133-0.137,0.076c-0.374-0.197-0.467-0.441-0.528-0.651c-0.092-0.348-0.127-1.034,0.38-1.323
	c0.32-0.197,1.167-0.598,1.983-0.476c0.575,0.092,1.48,0,1.758-0.035c0.273-0.029,2.317-0.396,3.665-1.439
	c-0.709,0.08-0.848-0.344-1.432-0.413c0.754-0.771,1.964-0.923,2.56-1.59c-0.531-0.064-1.002-0.493-1.393-0.552
	c1.19-0.655,1.976-1.045,2.813-1.939c0.011-0.012,0.324-0.365,0.446-0.511c-0.377-0.998-0.612-2.101-0.69-3.269
	c-0.021-0.284-0.039-0.574-0.062-0.875c-0.288,0.318-0.885,0.65-1.857,0.997c-0.456-1.109-0.241-3.166,0.342-4.759
	c-0.833,1.622-1.765,2.683-3.354,3.158c-0.39-1.196-0.157-3.274,0.4-4.83c-1.054,1.764-2.183,2.662-4.06,3.32
	c-0.16-1.436-0.01-3.341,0.684-5.087c-1.451,1.387-2.685,1.843-4.307,2.154c-0.102-1.717,0.311-3.266,1.176-5.182
	c-1.042,1.281-3.205,2.15-4.845,2.325c0.128-1.48,1.17-3.518,1.777-4.711c-1.538,1.106-3.175,1.901-4.952,1.995
	c0.224-1.688,0.979-3.512,2.276-4.98c-1.526,1.131-3.857,1.741-5.61,1.5c0.423-1.849,1.562-3.651,3.097-4.621
	c-0.891,0.173-2.505,0.545-4.366,0.371c-1.091,3.669-1.692,7.543-1.707,11.561c-0.928-0.729-1.577-0.914-2.212-1.547
	c0.116,0.874,0.232,1.347,0.328,2.424c0.171,1.933,0.906,3.042,2.123,3.736c0.054,0.552,0.125,1.098,0.206,1.643
	c-0.897-0.581-2.104-0.941-3.695-0.917c0.967,3.157,2.351,3.39,4.204,3.68c0.063,0.296,0.136,0.58,0.199,0.87
	c-0.983-0.266-2.173-0.266-3.52,0.105c0.928,1.451,2.227,2.322,4.29,2.635c0.003,0.012,0.006,0.023,0.015,0.036
	c-1.271-0.1-2.644,0.08-3.744,0.65c1.566,1.341,3.107,1.857,4.575,1.701c0.075,0.192,0.15,0.389,0.229,0.58
	c-1.158,0.308-2.186,0.906-2.757,1.469c1.221,0.391,2.475,0.592,3.609,0.476c0.009,0.024,0.026,0.052,0.035,0.083
	c-0.662,0.503-1.239,1.329-1.601,2.61c0.871-0.219,1.767-0.278,2.658-0.533c0.178,0.336,0.36,0.661,0.552,0.98
	c-0.47,0.899-0.639,2.021-0.363,3.268c0.751-0.186,1.366-0.47,1.878-0.848c0.176,0.262,0.354,0.524,0.539,0.778
	c-0.192,1.429,0.143,2.856,0.987,3.82c0.397-0.446,0.716-0.882,0.97-1.289c7.502,8.986,18.795,14.709,31.418,14.709
	c17.608,0,32.622-11.122,38.396-26.731l1.863-0.808l-0.145,0.819l2.681-2.316l-3.477,0.714l0.732,0.377l-1.429,0.586
	c0.255-0.713,0.487-1.456,0.696-2.183l2.044-1.132l-0.076,0.826l2.468-2.555l-3.397,1.027l0.766,0.32l-1.63,0.893
	c0.22-0.789,0.417-1.614,0.579-2.42l1.557-0.981l-0.069,0.818L113.951,75.458"/>
<path fill="#A61E30" d="M111.989,44.927c-0.777,0.266-1.55,0.478-2.298,0.647c4.307,7.057,6.791,15.346,6.791,24.217
	c0,25.699-20.84,46.528-46.529,46.528c-25.701,0-46.526-20.829-46.526-46.528c0-9.265,2.702-17.892,7.363-25.144
	c-0.736-0.211-1.462-0.493-2.192-0.842c-4.736,7.526-7.481,16.437-7.481,25.986c0,26.965,21.869,48.832,48.835,48.832
	c26.966,0,48.829-21.867,48.829-48.832C118.782,60.708,116.307,52.209,111.989,44.927"/>
<path fill="#A61E30" d="M42.896,31.927c7.624-5.459,16.964-8.669,27.056-8.669c11.265,0,21.603,4.01,29.654,10.675
	c0.906-0.259,1.795-0.491,2.7-0.72c-8.62-7.624-19.946-12.257-32.354-12.257c-11.127,0-21.387,3.721-29.599,9.994
	c0.389,0.142,0.782,0.278,1.178,0.435C41.999,31.564,42.458,31.744,42.896,31.927"/>
<path fill="#989898" d="M69.939,134.713c-35.849,0-64.917-29.07-64.917-64.921C5.022,33.935,34.09,4.87,69.939,4.87
	c35.85,0,64.921,29.065,64.921,64.921C134.86,105.643,105.789,134.713,69.939,134.713 M69.939,0.581
	c-38.22,0-69.207,30.99-69.207,69.211c0,38.226,30.986,69.207,69.207,69.207c38.225,0,69.211-30.981,69.211-69.207
	C139.15,31.571,108.164,0.581,69.939,0.581z"/>
<path fill="#163A64" d="M53.241,55.915c-0.981-0.504-1.843-1.088-2.769-1.935c-2.966-2.706-3.672-5.546-2.792-8.812
	c0.522-1.956,1.315-2.929,1.043-4.96c-0.156-1.164-0.979-2.102-1.801-2.892c-1.988-1.904-4.342-3.079-7.816-4.255
	c-2.154-0.725-8.4-2.662-11.151-5.154c-0.63,1.834,0.702,4.271,2.292,4.591c-1.405,0.143-2.604,0.877-3.163,1.672
	c1.063,1.23,3.178,2.509,4.925,2.547c-0.804,0.54-1.796,1.687-2.121,2.331c1.511,0.804,3.926,1.48,5.781,1.35
	c-0.781,0.624-1.457,1.419-1.896,2.145c1.251,0.568,3.692,1.397,6.017,1.573c-0.856,0.424-2.078,1.881-2.711,2.786
	c1.309,0.577,4.136,0.929,5.893,1.109c-1.255,0.659-2.572,1.977-3.292,3.17c1.271,0.609,3.666,1.289,5.619,1.225
	c-0.966,0.929-1.6,2.052-1.961,3.134c1.477,0.311,3.033,0.316,4.835,0.069c-1.095,1.39-1.533,3.225-1.683,4.531
	c1.465-0.038,3.411-0.376,4.783-1.198c-0.297,1.124-0.233,2.642,0.251,3.707c0.575-0.131,1.246-0.368,1.973-0.761
	C53.4,59.801,53.305,57.669,53.241,55.915"/>
<path fill="#163A64" d="M112.882,31.271c-2.762,2.496-7.174,3.161-11.795,4.69c-3.488,1.15-5.654,1.823-8.776,4.313
	c-0.889,0.712-1.736,1.75-1.637,3.547c0.104,1.988,0.423,2.847,0.482,5.633c0.034,1.989-0.656,3.587-1.485,4.525
	c-0.877,1.001-2.026,1.865-3.055,2.407c-0.058,1.691-0.133,3.395-0.226,5.372c0.72,0.397,1.648,0.76,2.229,0.891
	c0.476-1.065,0.546-2.583,0.243-3.707c1.37,0.822,3.326,1.16,4.783,1.198c-0.151-1.306-0.591-3.141-1.683-4.531
	c1.8,0.241,3.354,0.235,4.842-0.069c-0.372-1.082-1.011-2.206-1.975-3.134c1.962,0.064,4.354-0.615,5.63-1.225
	c-0.731-1.193-2.042-2.511-3.297-3.17c1.753-0.18,4.667-0.523,5.968-1.103c-0.628-0.9-1.933-2.368-2.787-2.792
	c2.322-0.176,4.759-1.005,6.026-1.573c-0.448-0.731-1.127-1.521-1.893-2.145c2.171-0.142,4.26-0.546,5.77-1.35
	c-0.325-0.65-1.312-1.792-2.119-2.331C112.797,35.419,112.871,33.088,112.882,31.271"/>
<path fill="#163A64" d="M93.262,36.196c-6.617-4.595-14.652-7.288-23.323-7.288c-7.896,0-15.279,2.241-21.531,6.118
	c1.622,1.263,2.584,2.595,2.821,3.982c0.202,1.21,0.338,2.673-0.357,4.807c-0.743,2.267-1.149,4.587,0.522,6.95
	c1.661,2.354,3.826,3.365,5.614,3.708c2.345-0.407,4.943-0.743,7.534-0.953c0.332-1.094,1.327-2.045,2.334-2.823
	c1.453-1.133,1.131-2.119,0.792-2.891c-0.276-0.599-0.792-1.083-1.541-1.475c-0.656-0.337-3.05-0.589-2.984,0.946
	c-0.391-0.554-0.708-1.306-0.478-2.264c0.318-1.338,2.507-1.678,3.053-1.64c-0.424-0.357-0.165-0.93,0.793-1.196
	c1.166-0.323,2.266-0.372,3.332-0.344c2.191,0.052,2.534,0.593,3.648,1.574c1.335,1.196,3.112,1.61,3.814,0.891
	c-0.506,1.137-2.095,1.747-3.121,1.567c0.502,1.579,0.676,2.952,0.856,4.613c0.082,0.756,0.238,2.019,0.447,3.053
	c2.925,0.244,5.887,0.647,8.452,1.137c1.062-0.304,2.171-0.932,3.158-2.075c0.939-1.088,1.804-2.464,1.45-5.933
	c-0.104-0.978-0.591-3.472-0.522-4.647C88.177,39.354,90.152,37.616,93.262,36.196"/>
<path fill="#163A64" d="M66.083,43.501c0.404,0.304,0.642,0.349,0.775,0.314c0.012,0.078,0.151,0.171,0.177,0.202
	c0.087,0.076,0.137,0.146,0.158,0.229c0.186-0.078,0.673-0.278,1.12-0.431c0.45-0.169,1.074-0.349,1.074-0.349
	C67.451,43.061,67.158,43.647,66.083,43.501"/>
<path fill="#163A64" d="M124.11,51.48c2.415-1.056,3.506-3.75,2.483-6.075c-1.015-2.324-3.731-3.331-6.141-2.269
	c-2.415,1.049-3.523,3.732-2.509,6.062C118.961,51.524,121.699,52.537,124.11,51.48 M121.237,44.916
	c1.903-0.839,4.086-0.456,4.638,0.807c0.563,1.279-0.632,3.141-2.543,3.979c-1.916,0.839-4.109,0.455-4.668-0.818
	C118.112,47.62,119.308,45.754,121.237,44.916z"/>
<polyline fill="#163A64" points="120.743,57.768 119.82,54.131 120.381,53.986 120.637,55.002 128.335,53.048 128.076,52.029 
	128.644,51.89 130.042,57.398 130.414,57.3 130.594,58.028 128.463,58.568 128.29,57.86 129.252,57.616 128.543,54.833 
	125.386,55.64 125.938,57.774 126.849,57.543 127.036,58.264 124.41,58.929 124.215,58.208 125.142,57.974 124.609,55.834 
	121.08,56.734 121.301,57.62 120.743,57.768 "/>
<path fill="#163A64" d="M13.079,48.003l-0.33,1.115l4.968,1.48c1.499,0.448,2.282,1.248,2.477,2.522
	c0.09,0.656,0.04,1.353-0.16,2.04c-0.642,2.14-2.233,3.173-4.058,2.632l-5.334-1.592l-0.302,1l-0.557-0.164l1.105-3.697l0.552,0.166
	l-0.292,0.99l4.926,1.469c1.337,0.398,2.014,0.342,2.575-0.224c0.249-0.27,0.458-0.63,0.574-1.027
	c0.475-1.585-0.186-2.786-1.803-3.271l-4.914-1.469l-0.328,1.097l-0.571-0.162l0.917-3.066L13.079,48.003"/>
<path fill="#163A64" d="M21.818,50.156c-0.203,0.47-0.739,0.689-1.213,0.498c-0.467-0.201-0.69-0.746-0.496-1.213
	c0.2-0.47,0.746-0.698,1.214-0.502C21.792,49.141,22.013,49.678,21.818,50.156"/>
<path fill="#163A64" d="M23.534,46.219l-0.366,0.662L21,45.661l0.377-0.66l0.885,0.503c0.732-0.3,1.121-0.616,1.455-1.211
	c0.414-0.746,0.275-1.532-0.345-1.887c-0.548-0.304-1.122-0.168-2.474,0.543c-1.407,0.758-1.608,0.833-2.144,0.95
	c-0.52,0.096-1.086-0.012-1.617-0.312c-1.323-0.751-1.657-2.217-0.827-3.68c0.263-0.468,0.546-0.801,0.993-1.149l-0.357-0.2
	l0.363-0.648l2.055,1.153l-0.365,0.647l-0.833-0.467c-0.601,0.328-0.906,0.584-1.151,1.03c-0.355,0.618-0.18,1.349,0.382,1.669
	c0.485,0.273,0.935,0.166,2.323-0.58c0.67-0.349,1.082-0.572,1.253-0.65c0.348-0.175,0.752-0.271,1.194-0.299
	c0.502-0.015,0.955,0.099,1.425,0.359c1.369,0.767,1.771,2.308,0.981,3.718c-0.395,0.697-0.821,1.12-1.457,1.492L23.534,46.219"/>
<path fill="#163A64" d="M27.149,39.972c0,0.508-0.399,0.906-0.902,0.906c-0.502,0-0.896-0.397-0.896-0.906
	c0-0.5,0.395-0.902,0.896-0.902C26.75,39.07,27.149,39.473,27.149,39.972"/>
<polyline fill="#163A64" points="48.486,22.233 42.649,25.245 42.388,24.721 43.317,24.248 39.68,17.188 38.749,17.667 
	38.484,17.151 43.535,14.547 43.358,14.21 44.016,13.868 45.023,15.809 44.374,16.149 43.92,15.266 41.369,16.579 42.858,19.476 
	44.823,18.462 44.388,17.629 45.05,17.275 46.292,19.693 45.637,20.041 45.195,19.186 43.23,20.197 44.795,23.226 47.456,21.853 
	46.989,20.95 47.642,20.613 48.486,22.233 "/>
<path fill="#163A64" d="M54.103,20.204l-3.792,1.262l-0.184-0.551l0.995-0.332l-2.504-7.536l-0.99,0.325l-0.186-0.548l3.97-1.312
	c1.62-0.54,3.008,0.093,3.506,1.6c0.476,1.428-0.392,3.021-1.927,3.526c-0.221,0.078-0.372,0.11-0.731,0.159l-0.212-0.641
	c0.18-0.024,0.253-0.044,0.366-0.08c0.891-0.292,1.175-1.103,0.787-2.269c-0.404-1.231-1.103-1.716-2.046-1.399l-0.787,0.261
	l2.444,7.36l1.108-0.371L54.103,20.204"/>
<path fill="#163A64" d="M65.312,17.146l-0.574,0.098l-4.877-8.1l-0.824,0.148l-2.002,9.292l-0.846,0.147l0.102,0.567l2.812-0.492
	l-0.102-0.566l-1.085,0.189l0.505-2.356l3.3-0.573l1.228,2.056l-0.958,0.162l0.102,0.571l3.317-0.571L65.312,17.146 M58.601,15.186
	l0.784-3.637l1.88,3.178L58.601,15.186z"/>
<path fill="#163A64" d="M74.838,17.151h-0.575c-0.272,0-0.439-0.125-0.761-0.609l-1.944-3.017c1.293-0.397,1.932-1.186,1.935-2.435
	c0-0.729-0.215-1.32-0.667-1.784c-0.496-0.494-1.161-0.673-2.342-0.68L66.416,8.62v0.578l1.043,0.005l-0.015,7.942h-1.053
	l-0.006,0.571l3.87,0.012v-0.578h-1.038l0.006-3.479l0.377,0.005l2.061,3.245c0.467,0.728,0.604,0.81,1.416,0.81l1.748,0.005
	L74.838,17.151 M69.242,9.398h0.859c0.984,0.005,1.556,0.639,1.55,1.747c0,1.083-0.659,1.846-1.608,1.846l-0.815-0.012L69.242,9.398
	z"/>
<polyline fill="#163A64" points="81.073,18.831 76.695,18.091 76.788,17.525 78.106,17.742 79.395,10.143 77.043,9.747 
	76.846,10.879 76.103,10.747 76.492,8.44 77.241,8.56 77.183,8.946 83.614,10.037 83.685,9.653 84.433,9.779 84.045,12.088 
	83.29,11.967 83.487,10.84 81.147,10.438 79.865,18.041 81.165,18.259 81.073,18.831 "/>
<polyline fill="#163A64" points="93.959,23.188 90.14,21.701 90.348,21.161 91.429,21.591 93.587,16.027 88.339,21.156 
	87.613,13.845 85.502,19.29 86.586,19.702 86.377,20.248 83.4,19.098 83.614,18.555 84.688,18.974 87.568,11.566 86.482,11.151 
	86.691,10.605 88.966,11.489 89.698,18.646 94.707,13.713 97.245,14.7 97.036,15.244 95.956,14.827 93.088,22.227 94.173,22.648 
	93.959,23.188 "/>
<polyline fill="#163A64" points="100.676,27.579 95.143,24.047 95.457,23.557 96.339,24.121 100.612,17.42 99.729,16.866 
	100.037,16.373 104.826,19.433 105.035,19.104 105.661,19.507 104.489,21.356 103.868,20.965 104.402,20.129 101.993,18.583 
	100.24,21.324 102.097,22.516 102.597,21.722 103.235,22.108 101.772,24.401 101.134,24.015 101.651,23.196 99.798,22.012 
	97.964,24.88 100.484,26.49 101.029,25.634 101.667,26.032 100.676,27.579 "/>
<path fill="#163A64" d="M37.733,27.959l-0.899,0.659l-4.479-6.095l0.94-0.697c1.304-0.952,3.439-0.371,4.639,1.263
	C39.218,24.836,39.134,26.938,37.733,27.959 M39.502,21.934c-1.512-2.052-4.317-2.456-6.42-0.91l-3.468,2.549l0.339,0.467
	l0.849-0.627l4.692,6.392c0.22,0.092,0.448,0.168,0.666,0.25l2.299-1.687c1.087-0.801,1.66-1.677,1.865-2.862
	C40.542,24.221,40.252,22.958,39.502,21.934z"/>
<path fill="#163A64" d="M112.419,25.69l-0.39,0.429l0.807,0.73l-3.902,4.279l0.987-7.715l-2.032-1.849l-0.389,0.429l0.738,0.671
	l-0.152,0.815l-4.875,5.346l-0.848-0.774l-0.396,0.429l2.305,2.102l0.389-0.43l-0.802-0.734l4.064-4.453l-0.871,7.076
	c0.835-0.223,1.747-0.458,2.71-0.728c0.088-0.023,0.157-0.049,0.24-0.067l3.471-3.811l0.859,0.778l0.39-0.423L112.419,25.69"/>
<path fill="#163A64" d="M121.699,35.717l-0.307,0.233l-3.971-5.192l0.314-0.238l-0.465-0.604l-1.862,1.426l0.458,0.603l0.919-0.697
	l1.438,1.901l-6.118,4.679l-0.319-0.418c-0.18,0.099-0.354,0.192-0.534,0.262l2.269,2.972l0.465-0.354l-0.802-1.044l6.124-4.688
	l1.44,1.89l-0.912,0.696l0.459,0.599l1.865-1.419L121.699,35.717"/>
<path fill="#163A64" d="M81.385,130.406l-0.742,0.164l-0.534-2.422l0.742-0.161l0.215,0.997c0.714,0.343,1.214,0.424,1.875,0.272
	c0.835-0.18,1.329-0.807,1.172-1.509c-0.128-0.603-0.614-0.952-2.043-1.486c-1.503-0.544-1.695-0.643-2.137-0.976
	c-0.422-0.32-0.719-0.812-0.847-1.404c-0.324-1.479,0.558-2.706,2.2-3.071c0.522-0.115,0.958-0.122,1.521-0.021l-0.087-0.4
	l0.719-0.159l0.511,2.301l-0.731,0.168l-0.202-0.931c-0.645-0.243-1.04-0.296-1.539-0.197c-0.697,0.165-1.127,0.779-0.993,1.404
	c0.122,0.541,0.504,0.815,1.98,1.36c0.708,0.26,1.148,0.412,1.323,0.486c0.36,0.152,0.708,0.384,1.01,0.697
	c0.347,0.367,0.568,0.779,0.685,1.314c0.336,1.536-0.546,2.855-2.125,3.203c-0.778,0.168-1.382,0.128-2.079-0.099L81.385,130.406"/>
<polyline fill="#163A64" points="95.399,126 89.292,128.399 89.083,127.86 90.058,127.476 87.155,120.08 86.174,120.469 
	85.972,119.93 91.259,117.851 91.115,117.484 91.811,117.212 92.612,119.257 91.927,119.522 91.567,118.6 88.886,119.65 
	90.082,122.681 92.136,121.873 91.799,121.003 92.496,120.712 93.478,123.238 92.792,123.535 92.432,122.628 90.384,123.436 
	91.625,126.604 94.412,125.509 94.04,124.567 94.736,124.295 95.399,126 "/>
<path fill="#163A64" d="M104.593,120.405c-0.778,0.976-1.323,1.479-2.218,2.026c-2.483,1.499-5.276,0.905-6.698-1.439
	c-1.41-2.322-0.685-5.127,1.683-6.572c0.761-0.458,1.354-0.679,2.218-0.807l-0.302-0.486l0.65-0.396l1.277,2.113l-0.644,0.395
	l-0.459-0.755c-0.963-0.064-1.416,0.035-2.037,0.412c-1.644,0.993-1.957,3.06-0.761,5.01c1.149,1.914,3.31,2.634,4.946,1.654
	c0.58-0.365,0.928-0.75,1.277-1.428l-0.546-0.896l0.662-0.395L104.593,120.405"/>
<path fill="#163A64" d="M108.75,106.171l-0.859,0.778l3.495,3.832c1.044,1.155,1.312,2.235,0.812,3.431
	c-0.254,0.615-0.656,1.185-1.184,1.667c-1.648,1.509-3.547,1.573-4.829,0.172l-3.762-4.115l-0.771,0.703l-0.384-0.425l2.851-2.605
	l0.388,0.423l-0.767,0.696l3.472,3.808c0.934,1.021,1.549,1.329,2.315,1.133c0.361-0.112,0.719-0.304,1.022-0.583
	c1.229-1.113,1.276-2.496,0.138-3.737l-3.459-3.785l-0.835,0.772l-0.4-0.441l2.356-2.154L108.75,106.171"/>
<polyline fill="#163A64" points="124.231,98.125 122.392,101.522 121.88,101.243 122.387,100.32 115.402,96.542 114.892,97.464 
	114.398,97.185 116.226,93.784 116.737,94.068 116.239,94.975 123.228,98.752 123.719,97.848 124.231,98.125 "/>
<polyline fill="#163A64" points="127.755,89.872 126.189,94.028 125.653,93.819 126.118,92.577 118.908,89.86 118.062,92.083 
	119.14,92.484 118.868,93.198 116.673,92.368 116.936,91.659 117.307,91.799 119.604,85.68 119.244,85.552 119.513,84.833 
	121.707,85.668 121.44,86.37 120.372,85.971 119.537,88.188 126.745,90.905 127.209,89.663 127.755,89.872 "/>
<polyline fill="#163A64" points="130.2,79.724 129.463,83.516 128.887,83.398 129.09,82.389 125.357,81.657 120.765,83.544 
	120.604,84.397 120.034,84.281 120.776,80.491 121.341,80.606 121.144,81.605 124.481,80.27 121.868,77.891 121.648,79.033 
	121.08,78.924 121.696,75.766 122.264,75.882 122.08,76.857 125.341,79.84 129.426,80.641 129.631,79.619 130.2,79.724 "/>
<path fill="#163A64" d="M111.35,102.991l0.524-0.696c0.58-0.795,1.427-0.859,2.309-0.209c0.871,0.655,1.104,1.625,0.535,2.385
	l-0.487,0.657L111.35,102.991 M120.917,103.095l-0.344,0.452c-0.168,0.22-0.364,0.291-0.939,0.25l-3.581-0.227
	c0.452-1.271,0.186-2.263-0.808-3c-0.586-0.435-1.196-0.61-1.835-0.518c-0.696,0.106-1.23,0.524-1.938,1.487l-2.421,3.262
	l0.453,0.342l0.638-0.842l6.374,4.737l-0.627,0.835l0.465,0.348l2.303-3.099l-0.469-0.344l-0.616,0.831l-2.785-2.079l0.22-0.296
	l3.831,0.272c0.867,0.059,1.022-0.005,1.503-0.655l1.045-1.405L120.917,103.095z"/>
<polyline fill="#163A64" points="11.63,88.258 10.708,84.497 11.271,84.363 11.521,85.367 15.042,84.507 13.973,80.165 
	10.455,81.013 10.703,82.023 10.142,82.151 9.226,78.413 9.783,78.273 10.036,79.288 17.752,77.408 17.506,76.381 18.062,76.254 
	18.978,79.998 18.414,80.131 18.17,79.132 14.772,79.956 15.837,84.315 19.239,83.485 18.985,82.482 19.558,82.348 20.469,86.098 
	19.909,86.231 19.659,85.216 11.942,87.096 12.197,88.119 11.63,88.258 "/>
<path fill="#163A64" d="M19.857,96.878c2.402-1.085,3.452-3.791,2.402-6.106c-1.057-2.305-3.785-3.281-6.18-2.183
	c-2.393,1.097-3.474,3.791-2.42,6.101C14.708,97,17.463,97.976,19.857,96.878 M16.885,90.347c1.897-0.859,4.085-0.511,4.655,0.749
	c0.581,1.272-0.595,3.151-2.484,4.017c-1.917,0.866-4.104,0.518-4.679-0.748C13.802,93.098,14.975,91.217,16.885,90.347z"/>
<polyline fill="#163A64" points="23.363,109.979 20.959,106.665 21.424,106.328 22.106,107.262 26.928,103.762 19.746,105.219 
	23.093,98.695 18.368,102.119 19.056,103.061 18.583,103.396 16.708,100.819 17.18,100.482 17.862,101.417 24.289,96.744 
	23.607,95.811 24.08,95.473 25.508,97.441 22.246,103.861 29.124,102.421 30.732,104.633 30.262,104.97 29.583,104.036 
	23.152,108.707 23.833,109.643 23.363,109.979 "/>
<polyline fill="#163A64" points="30.538,117.033 25.705,112.585 26.102,112.161 26.875,112.871 32.256,107.03 31.487,106.316 
	31.875,105.898 36.061,109.748 36.316,109.457 36.874,109.962 35.385,111.575 34.841,111.082 35.515,110.357 33.405,108.406 
	31.202,110.804 32.825,112.296 33.46,111.604 34.015,112.104 32.172,114.1 31.621,113.608 32.267,112.894 30.647,111.402 
	28.337,113.898 30.54,115.936 31.231,115.181 31.776,115.686 30.538,117.033 "/>
<polyline fill="#163A64" points="38.749,122.668 33.348,119.028 33.672,118.553 34.543,119.14 38.975,112.545 38.107,111.959 
	38.43,111.483 41.633,113.631 41.309,114.118 40.456,113.538 36.148,119.933 38.587,121.577 39.154,120.729 39.771,121.147 
	38.749,122.668 "/>
<path fill="#163A64" d="M48.689,126.896l-0.528-0.247l0.541-9.437l-0.764-0.348l-6.894,6.547l-0.778-0.354l-0.234,0.522l2.591,1.19
	l0.247-0.528l-1.009-0.459l1.747-1.66l3.047,1.38l-0.15,2.393l-0.874-0.402l-0.243,0.53l3.062,1.393L48.689,126.896 M44.252,121.491
	l2.696-2.554l-0.236,3.674L44.252,121.491z"/>
<polyline fill="#163A64" points="58.232,130.146 57.292,129.924 54.198,122.228 52.796,128.092 53.856,128.348 53.722,128.903 
	50.692,128.188 50.826,127.613 51.937,127.882 53.625,120.846 53.356,120.061 52.393,119.829 52.527,119.261 55.197,119.906 
	58.058,127.128 59.408,121.507 58.345,121.253 58.481,120.688 61.518,121.409 61.376,121.979 60.247,121.705 58.232,130.146 "/>
<path fill="#163A64" d="M66.845,130.823c1.349,0.055,2.339-0.276,3.239-1.079c0.97-0.875,1.523-2.043,1.573-3.307
	c0.09-2.556-1.866-4.61-4.473-4.698l-4.298-0.168l-0.017,0.587l1.044,0.035l-0.284,7.935l-1.051-0.034l-0.017,0.581L66.845,130.823
	 M65.791,122.767l1.164,0.041c1.617,0.064,2.931,1.848,2.865,3.874c-0.084,2.164-1.454,3.755-3.184,3.698l-1.121-0.048
	L65.791,122.767z"/>
<path fill="#FFFFFF" d="M69.939,90.359H69.5c-0.22-1.382-1.218-2.228-2.675-2.676c-1.107-0.347-2.715-0.865-6.147-1.915
	c-3.986-1.225-6.017-4.43-6.293-8.453c-0.386-5.694-0.951-15.688-1.164-22.056c4.496-1.099,11.13-1.965,16.719-1.965
	c5.583,0,12.219,0.866,16.717,1.965c-0.209,6.368-0.79,16.361-1.162,22.056c-0.278,4.023-2.31,7.228-6.292,8.453
	c-3.437,1.05-5.044,1.567-6.149,1.915c-1.461,0.448-2.462,1.294-2.677,2.676H69.939"/>
<path fill="#026CA7" d="M68.8,75.83l-0.815-0.413l-0.526-1.369l-1.192-0.522l-1.344-1.195l-0.801,0.875l-1.193,0.281l-0.633,1.002
	l-0.958,1.021l-1.305,0.696l-0.903,1.526l-0.514,0.68l-0.879,0.685l-0.488-0.511l-0.522,0.487l-0.65,1.213
	c-0.343-0.906-0.549-1.601-0.653-3.046c-0.192-2.67-0.386-6.029-0.575-9.468c4.411-0.953,10.026-1.58,14.585-1.623v10.418
	C69.221,76.439,69.016,76.34,68.8,75.83"/>
<path fill="#668E3D" d="M69.434,80.851H56.314c0.191,0.406,0.412,0.778,0.67,1.138c0.943,1.324,2.287,2.304,3.994,2.833
	c2.316,0.708,3.793,1.173,4.87,1.509l1.282,0.406c1.051,0.326,1.783,0.802,2.303,1.319V80.851"/>
<path fill="#163A64" d="M83.29,75.777c0.354-0.285,0.765-0.615,1.311-0.819c0.083-1.225,0.158-2.531,0.244-3.886
	c-0.15,0.096-0.301,0.217-0.487,0.362c-0.627,0.508-1.404,1.145-2.781,1.145c-1.294,0-2.129-0.512-2.792-0.932
	c-0.545-0.331-0.986-0.599-1.625-0.599c-0.714,0-1.323,0.367-1.968,0.752c-0.699,0.411-1.489,0.888-2.456,0.888
	c-0.99,0-1.706-0.305-2.292-0.622v3.681c0.131,0.075,0.261,0.157,0.389,0.232c0.586,0.359,1.097,0.679,1.903,0.679
	c0.502,0,0.994-0.302,1.58-0.656c0.778-0.463,1.66-0.993,2.844-0.993c1.114,0,1.858,0.453,2.514,0.859
	c0.586,0.36,1.098,0.667,1.904,0.667C82.349,76.537,82.767,76.206,83.29,75.777"/>
<path fill="#163A64" d="M72.736,84.171c-0.99,0-1.706-0.296-2.292-0.627v4.511c0.517-0.517,1.249-0.993,2.304-1.319l1.277-0.406
	c1.081-0.336,2.549-0.801,4.871-1.509c0.679-0.208,1.294-0.487,1.864-0.836c-0.849-0.15-1.463-0.533-1.975-0.847
	c-0.545-0.342-0.986-0.609-1.625-0.609c-0.714,0-1.323,0.371-1.968,0.76C74.493,83.701,73.703,84.171,72.736,84.171"/>
<path fill="#026CA7" d="M83.29,70.115c0.429-0.347,0.945-0.758,1.66-0.921c0.028-0.475,0.052-0.948,0.082-1.421
	c-4.412-0.953-10.02-1.58-14.588-1.623v3.936c0.131,0.076,0.261,0.153,0.389,0.236c0.586,0.354,1.097,0.674,1.903,0.674
	c0.502,0,0.994-0.306,1.58-0.654c0.778-0.474,1.66-0.995,2.844-0.995c1.114,0,1.858,0.464,2.514,0.855
	c0.586,0.364,1.098,0.673,1.904,0.673C82.349,70.875,82.767,70.543,83.29,70.115"/>
<path fill="#026CA7" d="M70.443,77.727v3.837c0.131,0.076,0.261,0.156,0.389,0.237c0.586,0.36,1.097,0.674,1.903,0.674
	c0.502,0,0.994-0.302,1.58-0.65c0.778-0.464,1.66-0.998,2.844-0.998c1.114,0,1.858,0.452,2.514,0.859
	c0.586,0.359,1.098,0.674,1.904,0.674c0.622,0,1.017-0.222,1.429-0.535c0.841-1.242,1.329-2.792,1.445-4.585
	c0.006-0.082,0.012-0.151,0.017-0.222c-0.035,0.024-0.068,0.059-0.109,0.083c-0.627,0.51-1.404,1.137-2.781,1.137
	c-1.288,0-2.129-0.511-2.792-0.917c-0.545-0.348-0.986-0.609-1.625-0.609c-0.714,0-1.323,0.365-1.968,0.755
	c-0.699,0.411-1.489,0.887-2.456,0.887C71.746,78.354,71.03,78.053,70.443,77.727"/>
<path fill="#163A64" d="M54.79,66.771c-0.208-3.832-0.391-7.691-0.507-10.733c4.655-1.056,10.814-1.753,15.656-1.753
	c4.84,0,11.006,0.697,15.649,1.753c-0.104,3.042-0.29,6.902-0.505,10.733c-4.382-0.926-10.176-1.617-15.144-1.617
	C64.969,65.154,59.173,65.845,54.79,66.771"/>
<polyline fill="#FFFFFF" points="57.846,58.568 58.015,57.742 57.249,57.393 58.085,57.306 58.168,56.467 58.514,57.238 
	59.327,57.07 58.709,57.63 59.129,58.365 58.401,57.936 57.846,58.568 "/>
<polyline fill="#FFFFFF" points="62.949,57.886 62.244,57.43 61.654,58.035 61.866,57.219 61.121,56.836 61.951,56.783 
	62.078,55.951 62.38,56.734 63.207,56.603 62.563,57.141 62.949,57.886 "/>
<polyline fill="#FFFFFF" points="66.777,57.594 66.099,57.097 65.483,57.669 65.735,56.87 65.01,56.45 65.839,56.441 66.011,55.61 
	66.275,56.412 67.105,56.319 66.429,56.821 66.777,57.594 "/>
<polyline fill="#FFFFFF" points="70.605,57.512 69.959,56.978 69.309,57.512 69.607,56.723 68.902,56.255 69.742,56.305 
	69.959,55.486 70.171,56.305 71.006,56.255 70.312,56.723 70.605,57.512 "/>
<polyline fill="#FFFFFF" points="81.507,57.948 80.781,58.371 81.201,57.637 80.579,57.077 81.397,57.245 81.746,56.473 
	81.827,57.312 82.662,57.398 81.891,57.752 82.071,58.574 81.507,57.948 "/>
<polyline fill="#FFFFFF" points="77.345,57.141 76.695,56.603 77.519,56.74 77.827,55.951 77.949,56.783 78.785,56.836 
	78.042,57.219 78.256,58.035 77.659,57.43 76.957,57.892 77.345,57.141 "/>
<polyline fill="#FFFFFF" points="73.479,56.827 72.812,56.319 73.642,56.417 73.903,55.61 74.075,56.443 74.907,56.45 74.179,56.87 
	74.434,57.674 73.815,57.097 73.137,57.594 73.479,56.827 "/>
<polyline fill="#FFFFFF" points="58.401,64.768 58.572,63.941 57.818,63.586 58.648,63.511 58.744,62.673 59.081,63.444 
	59.893,63.281 59.271,63.837 59.681,64.571 58.958,64.141 58.401,64.768 "/>
<polyline fill="#FFFFFF" points="63.367,64.141 62.665,63.673 62.072,64.272 62.284,63.463 61.544,63.071 62.38,63.027 
	62.511,62.193 62.813,62.983 63.637,62.853 62.983,63.386 63.367,64.141 "/>
<polyline fill="#FFFFFF" points="67.05,63.869 66.365,63.375 65.753,63.946 66.006,63.139 65.286,62.722 66.119,62.716 
	66.288,61.889 66.545,62.687 67.38,62.597 66.705,63.103 67.05,63.869 "/>
<polyline fill="#FFFFFF" points="70.737,63.805 70.083,63.271 69.436,63.805 69.738,63.009 69.033,62.548 69.866,62.591 
	70.083,61.778 70.299,62.591 71.131,62.548 70.432,63.009 70.737,63.805 "/>
<polyline fill="#FFFFFF" points="81.201,64.185 80.479,64.614 80.897,63.88 80.277,63.319 81.095,63.482 81.432,62.716 
	81.519,63.554 82.354,63.637 81.589,63.99 81.768,64.812 81.201,64.185 "/>
<polyline fill="#FFFFFF" points="77.183,63.413 76.533,62.879 77.357,63.009 77.659,62.225 77.787,63.059 78.622,63.103 
	77.879,63.488 78.088,64.307 77.502,63.706 76.799,64.17 77.183,63.413 "/>
<polyline fill="#FFFFFF" points="73.459,63.113 72.794,62.612 73.624,62.703 73.886,61.903 74.055,62.727 74.896,62.742 
	74.159,63.158 74.411,63.961 73.799,63.389 73.117,63.88 73.459,63.113 "/>
<polyline fill="#FFFFFF" points="60.227,61.112 60.424,60.287 59.672,59.913 60.509,59.852 60.619,59.015 60.932,59.793 
	61.75,59.651 61.121,60.197 61.518,60.94 60.807,60.496 60.227,61.112 "/>
<polyline fill="#FFFFFF" points="56.567,61.686 56.735,60.858 55.965,60.516 56.796,60.423 56.876,59.587 57.223,60.347 
	58.042,60.185 57.422,60.745 57.846,61.479 57.118,61.056 56.567,61.686 "/>
<polyline fill="#FFFFFF" points="65.184,60.591 64.497,60.109 63.887,60.696 64.128,59.881 63.387,59.477 64.226,59.459 
	64.372,58.626 64.652,59.421 65.483,59.309 64.821,59.825 65.184,60.591 "/>
<polyline fill="#FFFFFF" points="68.852,60.415 68.186,59.895 67.555,60.452 67.829,59.657 67.115,59.215 67.944,59.233 
	68.138,58.409 68.379,59.215 69.213,59.155 68.525,59.64 68.852,60.415 "/>
<polyline fill="#FFFFFF" points="72.524,60.461 71.889,59.906 71.227,60.415 71.548,59.64 70.867,59.155 71.7,59.221 71.938,58.416 
	72.13,59.239 72.965,59.221 72.249,59.662 72.524,60.461 "/>
<polyline fill="#FFFFFF" points="82.964,61.082 82.228,61.491 82.662,60.772 82.059,60.197 82.872,60.379 83.22,59.613 
	83.29,60.452 84.119,60.565 83.348,60.893 83.509,61.726 82.964,61.082 "/>
<polyline fill="#FFFFFF" points="78.959,60.217 78.32,59.675 79.14,59.819 79.464,59.042 79.575,59.881 80.404,59.945 
	79.656,60.311 79.848,61.13 79.272,60.516 78.558,60.975 78.959,60.217 "/>
<polyline fill="#FFFFFF" points="75.256,59.842 74.594,59.325 75.424,59.433 75.708,58.643 75.854,59.465 76.695,59.503 
	75.952,59.895 76.185,60.712 75.58,60.13 74.896,60.603 75.256,59.842 "/>
<path fill="#FFFFFF" d="M32.659,79.202c1.237-1.752,3.556-2.125,2.509-6.835C32.538,73.515,31.31,76.799,32.659,79.202"/>
<path fill="#FFFFFF" d="M32.488,67.435c-0.845,0.348-2.035,1.519-2.572,3.06c0.886,1.022,1.26,2.281,1.219,3.418
	C32.746,72.442,33.307,69.896,32.488,67.435"/>
<path fill="#FFFFFF" d="M34.05,83.718c0.108,0.023,0.084,0.012-0.038-0.028c-1.237-0.691-2.11-0.935-3.809-0.697
	C31.797,83.104,32.912,83.329,34.05,83.718"/>
<path fill="#FFFFFF" d="M39.222,89.441c-0.018,0.035-0.032,0.07-0.044,0.11c-0.044,1.905,1.175,4.028-1.007,7.03
	c-0.104,0.36-0.246,1.138,0.874-0.197C41.259,93.76,39.378,91.613,39.222,89.441"/>
<path fill="#FFFFFF" d="M34.813,92.42c0.183-1.191,0.97-2.6,2.125-3.559c0.806-0.662,1.259-0.906,0.586-0.196
	C36.5,89.732,35.314,91.468,34.813,92.42"/>
<path fill="#FFFFFF" d="M37.338,95.653c-0.44-1.114-0.055-2.903,0.423-4.087c0.334-0.802,1.162-2.026,1.423-2.136
	C38.27,90.829,37.288,94.574,37.338,95.653"/>
<path fill="#FFFFFF" d="M33.632,80.095c-0.084-0.417-0.496-0.695-0.914-0.609c-0.425,0.087-0.697,0.494-0.609,0.911
	c0.084,0.431,0.498,0.697,0.914,0.616C33.444,80.932,33.722,80.52,33.632,80.095"/>
<path fill="#FFFFFF" d="M40.42,81.165c0.025-1.167-0.154-2.369-0.019-3.729c-2.319,1.695-3.114,4.668-2.149,6.747
	c-0.099-0.024-0.198-0.024-0.302,0c-0.435,0.086-0.715,0.51-0.631,0.951c0.088,0.43,0.514,0.714,0.955,0.627
	c0.436-0.087,0.721-0.511,0.63-0.946c-0.048-0.227-0.176-0.412-0.354-0.523c-0.382-1.834-0.067-4.127,0.896-5.091
	c-0.295,1.144-0.847,3.553-0.493,5.77c0.379-0.429,0.665-0.847,0.873-1.265c0.046,0.349,0.128,0.72,0.276,1.091
	c0.052-1.765,0.642-3.518,2.479-4.737c-1.347,1.708-2.113,3.698-2.275,5.202c0.977-1.243,3.194-1.613,3.354-6.472
	C42.536,79.132,41.192,79.945,40.42,81.165"/>
<path fill="#FFFFFF" d="M41.953,86.156c-0.096-0.458-0.538-0.754-0.995-0.662c-0.46,0.093-0.752,0.534-0.662,1.003
	c0.092,0.459,0.542,0.743,1.001,0.656C41.753,87.049,42.045,86.621,41.953,86.156"/>
<path fill="#FFFFFF" d="M41.657,88.722c-0.093-0.464-0.538-0.761-0.999-0.667c-0.45,0.092-0.751,0.534-0.656,0.992
	c0.09,0.465,0.534,0.755,0.999,0.667C41.457,89.622,41.753,89.163,41.657,88.722"/>
<path fill="#FFFFFF" d="M36.77,76.254c-1.719,1.427-2.198,3.227-2.012,4.812c-0.073-0.012-0.139-0.012-0.2,0.005
	c-0.363,0.07-0.592,0.417-0.52,0.766c0.072,0.36,0.418,0.593,0.77,0.518c0.084-0.018,0.157-0.046,0.218-0.088
	c0.16,0.46,0.377,0.877,0.626,1.237c-0.15-0.527-0.26-1.114-0.322-1.712c0.004-0.07,0.009-0.139-0.008-0.208
	c0-0.018-0.006-0.024-0.012-0.047c-0.09-1.34,0.122-2.728,0.863-3.738c-0.229,1.475-0.578,4.308-0.248,6.073
	C36.426,81.988,39.129,81.165,36.77,76.254"/>
<path fill="#FFFFFF" d="M43.63,87.305c-0.076-0.348-0.414-0.586-0.778-0.51c-0.351,0.068-0.586,0.417-0.516,0.766
	c0.08,0.36,0.42,0.592,0.777,0.522C43.474,88.003,43.7,87.653,43.63,87.305"/>
<path fill="#FFFFFF" d="M39.996,87.184c-0.064-0.331-0.38-0.54-0.708-0.471c-0.332,0.059-0.54,0.378-0.479,0.708
	c0.067,0.325,0.389,0.534,0.715,0.476C39.852,87.827,40.06,87.503,39.996,87.184"/>
<path fill="#FFFFFF" d="M31.719,78.854c-0.044-0.268-0.284-0.465-0.542-0.465c-0.851-1.148-2.076-2.379-4.116-2.589
	c1.12,0.524,2.797,1.556,3.964,2.613c-0.278,0.07-0.458,0.337-0.412,0.632c0.055,0.296,0.343,0.505,0.653,0.459
	C31.565,79.445,31.774,79.161,31.719,78.854"/>
<path fill="#FFFFFF" d="M31.746,74.988c-0.076-0.377-0.451-0.63-0.836-0.545c-0.012,0-0.029,0-0.049,0.011
	c-0.464-1.808-0.908-3.213-2.957-4.624c1.023,1.319,2.215,3.234,2.878,4.648c-0.306,0.127-0.494,0.453-0.426,0.795
	c0.075,0.382,0.453,0.633,0.835,0.558C31.571,75.748,31.82,75.376,31.746,74.988"/>
<path fill="#FFFFFF" d="M33.826,82.087c-0.052-0.296-0.336-0.504-0.647-0.458c-0.148,0.028-0.276,0.11-0.354,0.227
	c-1.813-1.608-3.063-1.62-4.02-1.66c0.575,0.202,2.649,0.806,3.97,1.741c-0.055,0.098-0.075,0.214-0.055,0.336
	c0.049,0.307,0.347,0.517,0.647,0.471C33.672,82.684,33.881,82.394,33.826,82.087"/>
<path fill="#FFFFFF" d="M35.35,84.356c-0.085-0.435-0.517-0.719-0.952-0.639c-0.436,0.093-0.717,0.523-0.633,0.952
	c0.09,0.441,0.514,0.732,0.955,0.638C35.156,85.216,35.437,84.786,35.35,84.356"/>
<path fill="#FFFFFF" d="M36.526,85.75c-0.052-0.307-0.34-0.511-0.646-0.463c-0.194,0.034-0.347,0.156-0.42,0.325
	c-1.579-0.208-3.293,0.011-4.743,0.812c1.62-0.371,3.315-0.719,4.7-0.725c0.008,0,0.008,0,0.008,0
	c-0.02,0.074-0.023,0.155-0.015,0.231c0.06,0.308,0.348,0.517,0.653,0.464C36.374,86.342,36.578,86.052,36.526,85.75"/>
<path fill="#FFFFFF" d="M38.151,86.69c-0.078-0.395-0.467-0.65-0.865-0.568c-0.388,0.068-0.65,0.458-0.572,0.858
	c-0.015,0-0.026-0.011-0.049-0.011c-1.17-0.041-3.117,0.267-4.311,1.677c1.222-0.714,3.176-1.462,4.345-1.619
	c0.009,0,0.02,0,0.032,0c0.099,0.37,0.468,0.604,0.848,0.522C37.971,87.468,38.227,87.091,38.151,86.69"/>
<path fill="#FFFFFF" d="M48.391,90.37c3.334,2.508,5.228,5.99,5.709,8.794c-0.417-0.308-1.208-0.626-1.689-0.534
	c-0.433-2.96-1.977-5.357-4.397-7.297C48.116,90.882,48.253,90.574,48.391,90.37"/>
<path fill="#FFFFFF" d="M45.845,92.97c0.79,0.313,1.187,0.199,1.39-0.08c0.42-0.604,0.22-1.393-0.049-1.533
	c0.059,0.244,0.049,0.5-0.008,0.784c-0.041,0.238-0.164,0.622-0.599,0.575c-0.235-0.029-0.667-0.139-0.919-0.319
	c-0.183-0.123-0.183-0.436-0.079-0.702c0.049-0.133,0.108-0.325,0.268-0.453c-0.268,0.059-0.43,0.197-0.642,0.36
	c-0.212,0.162-0.525,0.198-0.706,0.012c-0.224-0.256-0.363-0.442-0.438-0.604c-0.184-0.43,0.369-0.75,0.69-0.917
	c-0.558,0.012-0.654,0.214-1.094,0.139c-0.459-0.069-0.571-0.795-0.569-1.033c0-0.175,0.216-0.348,0.474-0.408
	c0.249-0.057,0.548-0.034,0.712-0.017c-0.024-0.109-0.039-0.25-0.036-0.395c-0.45-0.111-1.329,0.041-1.498,0.296
	c-0.209,0.319-0.154,0.487,0.014,1.051c0.165,0.539,0.293,0.737,0.645,0.789c0.098,0.006,0.286,0.041,0.498-0.04
	c-0.109,0.07-0.186,0.134-0.24,0.272c-0.061,0.145-0.16,0.389,0.272,0.906c0.375,0.447,0.741,0.621,1.045,0.447
	c0.174-0.093,0.242-0.197,0.322-0.284c-0.048,0.123-0.102,0.249-0.124,0.376C45.094,92.634,45.425,92.809,45.845,92.97"/>
<path fill="#FFFFFF" d="M45.265,89.512c0.224-0.29,0.772-0.325,1.083-0.128c-0.208,0.4-0.232,1.067-0.113,1.388
	C45.45,90.649,45.309,89.9,45.265,89.512"/>
<path fill="#FFFFFF" d="M46.495,89.464c0.458-0.034,0.633-0.266,0.715-0.499c0.08-0.215,0.33-0.349,0.336-0.012
	c0.003,0.336,0.003,0.487-0.187,0.581C47.166,89.633,46.824,89.65,46.495,89.464"/>
<path fill="#FFFFFF" d="M46.728,90.186c-0.044,0.255-0.131,0.486-0.288,0.719c-0.116,0.163-0.287,0.267-0.409,0.376
	c0.212,0.157,0.514,0.25,0.77,0.238c0.244-0.01,0.261-0.046,0.244-0.145C46.989,90.957,46.824,90.359,46.728,90.186"/>
<path fill="#FFFFFF" d="M93.175,89.099c0.215,0.401,0.227,1.069,0.11,1.388c0.795-0.128,0.928-0.871,0.976-1.265
	C94.035,88.937,93.483,88.902,93.175,89.099"/>
<path fill="#FFFFFF" d="M93.03,89.174c-0.458-0.035-0.631-0.26-0.714-0.488c-0.087-0.22-0.331-0.359-0.331-0.017
	c-0.006,0.336-0.012,0.481,0.18,0.575C92.356,89.343,92.693,89.372,93.03,89.174"/>
<path fill="#FFFFFF" d="M93.077,90.609c-0.151-0.222-0.238-0.459-0.279-0.704c-0.104,0.168-0.255,0.761-0.326,1.186
	c-0.012,0.098-0.005,0.126,0.256,0.138c0.25,0.012,0.551-0.069,0.761-0.232C93.366,90.893,93.205,90.789,93.077,90.609"/>
<path fill="#FFFFFF" d="M106.782,78.104l0.795,0.227L95.59,87.793h0.006l-0.292,0.232c-0.005,0-0.028,0-0.046,0.006
	c0.012,0.133,0,0.268-0.023,0.389c0.174-0.006,0.406-0.006,0.604,0.046c0.254,0.07,0.47,0.243,0.464,0.418
	c0,0.237-0.14,0.963-0.592,1.021c-0.453,0.064-0.54-0.15-1.098-0.174c0.308,0.186,0.866,0.51,0.656,0.935
	c-0.076,0.168-0.22,0.348-0.453,0.598c-0.175,0.18-0.493,0.139-0.697-0.036c-0.209-0.162-0.365-0.313-0.638-0.382
	c0.162,0.139,0.22,0.33,0.26,0.463c0.093,0.256,0.088,0.581-0.099,0.696c-0.26,0.169-0.696,0.267-0.929,0.291
	c-0.43,0.046-0.545-0.349-0.58-0.581c-0.046-0.29-0.052-0.546,0.018-0.79c-0.273,0.14-0.505,0.917-0.088,1.533
	c0.186,0.29,0.574,0.406,1.375,0.128c0.424-0.157,0.771-0.314,0.691-0.761c-0.018-0.133-0.064-0.266-0.11-0.389
	c0.081,0.087,0.132,0.198,0.306,0.303c0.313,0.173,0.674,0.011,1.063-0.431c0.435-0.499,0.354-0.755,0.296-0.893
	c-0.047-0.14-0.122-0.209-0.232-0.28c0.209,0.088,0.389,0.07,0.488,0.048c0.366-0.036,0.493-0.228,0.673-0.755
	c0.187-0.569,0.244-0.731,0.041-1.057c-0.087-0.133-0.367-0.249-0.692-0.307l11.889-9.387l0.035,0.83l2.136-2.833L106.782,78.104"/>
<path fill="#FFFFFF" d="M100.391,81.013l8.44-10.687l0.227,0.794l1.417-3.25l-2.827,2.146l0.836,0.032l-7.651,9.689
	c-0.592,0.911-1.236,1.869-1.835,2.774l0.012,0.012C99.462,82.034,99.926,81.524,100.391,81.013"/>
<path fill="#FFFFFF" d="M99.38,84.195c0.708-0.558,1.452-1.145,2.171-1.719l7.036-6.513l0.104,0.824l1.892-2.995l-3.111,1.689
	l0.807,0.152l-7.059,6.542C100.588,82.871,99.973,83.556,99.38,84.195"/>
<path fill="#FFFFFF" d="M107.194,82.662l-9.903,4.957c-0.173,0.14-0.313,0.25-0.401,0.326c0.076,0.046,0.122,0.11,0.168,0.18
	c0.023,0.035,0.036,0.063,0.053,0.087l10.293-5.143l-0.14,0.812l2.664-2.333l-3.466,0.738L107.194,82.662"/>
<path fill="#FFFFFF" d="M92.229,93.146c-0.15-0.048-0.278-0.116-0.388-0.216l-1.777,3.674l0.012,0.006l-0.645,0.215l-2.102,4.016
	l1.022-0.301l0.36,0.999l1.991-4.088l-0.238-0.65L92.229,93.146"/>
<path fill="#FFFFFF" d="M99.131,86.167c0.679-0.336,1.469-0.731,2.259-1.137l6.594-4.296l-0.046,0.824l2.373-2.624l-3.348,1.126
	l0.765,0.296l-7.163,4.684C100.054,85.442,99.578,85.82,99.131,86.167"/>
<path fill="#FFFFFF" d="M91.421,92.17c-0.052-0.197-0.063-0.407-0.052-0.604l-2.35,2.566l-0.696,0.057l-0.059,0.058v0.007
	l-3.268,3.268l0.15-0.01l-0.017,0.01l0.041-0.01l0.812-0.036l0.14,0.801l2.717-3.564l0.522-0.116L91.421,92.17"/>
<path fill="#FFFFFF" d="M95.758,87.049c0.291-0.219,0.702-0.545,1.202-0.939l11.557-12.638l0.163,0.81l1.654-3.134l-2.973,1.927
	l0.819,0.087L96.083,86.399C95.967,86.638,95.862,86.853,95.758,87.049"/>
<path fill="#FFFFFF" d="M85.414,95.699l4.307-3.035c0.488-0.541,1.034-1.127,1.219-1.331l-5.375,3.547v0.006l-0.673-0.14
	l-0.389,0.244l-3.454,2.159l0.975,0.197l0.116,0.732l2.775-2.404L85.414,95.699"/>
<path fill="#FFFFFF" d="M81.851,96.094l1.717-1.079l1.614-1.091l0.546,0.104c0,0,3.924-2.415,4.875-3.042
	c0.053-0.035,0.083-0.058,0.083-0.058c0.012,0,0.022-0.012,0.034-0.017l-5.154,2.571l-0.656-0.208l-4.092,1.95l0.917,0.337
	L81.851,96.094"/>
<path fill="#FFFFFF" d="M101.267,72.312l0.807-0.146L94.679,87.16c0.058,0.035,0.116,0.063,0.151,0.081
	c0.087,0.052,0.163,0.116,0.221,0.186l7.43-15.055l0.383,0.729l0.721-3.466L101.267,72.312"/>
<path fill="#FFFFFF" d="M102.156,74.836l0.824-0.045l-4.644,7.058c-0.546,1.103-1.074,2.177-1.544,3.123
	c0.022-0.035,0.046-0.058,0.069-0.087l6.501-9.833l0.285,0.771l1.143-3.357L102.156,74.836"/>
</svg>
